<?xml version="1.0" standalone="no"?>
<!DOCTYPE svg PUBLIC "-//W3C//DTD SVG 20010904//EN"
 "http://www.w3.org/TR/2001/REC-SVG-20010904/DTD/svg10.dtd">
<svg version="1.0" xmlns="http://www.w3.org/2000/svg"
 width="515.000000pt" height="515.000000pt" viewBox="0 0 515.000000 515.000000"
 preserveAspectRatio="xMidYMid meet">
<metadata>
Created by potrace 1.14, written by Peter Selinger 2001-2017
</metadata>
<g transform="translate(0.000000,515.000000) scale(0.100000,-0.100000)"
fill="#000000" stroke="none">
<path d="M2181 4565 c-433 -45 -937 -166 -1235 -297 -341 -149 -630 -406 -716
-636 -48 -126 -34 -277 38 -423 l37 -76 -48 -59 c-27 -32 -67 -96 -89 -142
-35 -69 -42 -94 -46 -160 -2 -42 1 -96 7 -119 18 -67 89 -162 163 -217 l66
-50 -25 -69 c-13 -38 -23 -71 -20 -73 15 -16 312 -184 324 -184 8 0 69 16 136
35 67 19 125 35 129 35 23 0 -2 -32 -68 -89 -41 -35 -74 -65 -72 -66 10 -10
432 -255 439 -255 4 0 101 50 216 110 114 61 215 109 223 107 8 -2 102 -61
208 -131 106 -69 196 -126 200 -126 4 0 63 34 132 74 69 41 126 73 127 72 1
-1 -9 -38 -22 -81 -14 -44 -25 -83 -25 -87 0 -5 90 -8 200 -8 l200 0 0 69 0
69 112 -50 c61 -27 118 -47 127 -45 9 3 65 25 124 50 120 51 119 51 76 -35
-11 -21 -19 -40 -19 -43 0 -3 106 -5 235 -5 129 0 235 3 235 8 -1 4 -61 50
-135 103 -125 90 -133 98 -120 115 13 18 23 14 203 -78 l189 -98 79 118 79
117 170 27 c94 15 179 27 190 27 13 1 27 -11 39 -34 27 -50 90 -105 177 -154
41 -24 99 -60 130 -81 l57 -37 63 27 c119 51 119 51 99 -22 -22 -80 -108 -141
-288 -205 -170 -60 -195 -81 -288 -239 l-55 -94 -44 53 c-67 83 -134 128 -218
146 -54 13 -143 -7 -199 -45 l-38 -24 -80 64 c-199 156 -281 157 -503 7 -42
-28 -81 -51 -88 -51 -7 0 -60 26 -118 57 -99 53 -111 57 -186 61 -65 3 -91 0
-140 -18 -93 -35 -147 -36 -240 -5 -44 14 -111 28 -150 31 -62 5 -74 3 -105
-18 -65 -44 -95 -112 -135 -301 -15 -69 -19 -77 -40 -77 -18 0 -25 7 -30 32
-4 18 -22 73 -41 121 -54 142 -140 249 -211 263 -37 7 -125 -51 -238 -158
l-83 -79 -65 108 c-63 104 -118 168 -164 192 -55 28 -158 1 -243 -63 l-34 -26
-12 47 c-18 69 -69 113 -175 148 -119 39 -174 69 -197 107 -44 71 -43 74 79
172 l110 88 -136 84 c-74 46 -140 84 -145 84 -6 0 -10 -17 -10 -37 0 -143 -33
-527 -51 -598 -28 -106 -23 -228 11 -300 65 -139 333 -323 605 -418 184 -64
504 -138 735 -171 466 -67 1145 -75 1773 -21 502 43 931 147 1206 292 207 108
328 206 366 296 25 60 19 178 -14 266 -15 41 -31 76 -37 78 -16 5 -85 -113
-113 -196 -45 -132 -104 -190 -272 -270 -143 -68 -305 -122 -494 -165 -724
-162 -1487 -188 -2335 -81 -304 39 -574 105 -869 212 -214 77 -302 128 -336
193 -23 45 -35 149 -28 252 l6 97 71 -58 c39 -32 102 -86 140 -121 77 -69 125
-94 165 -85 15 3 63 28 107 55 l79 49 16 -27 c128 -213 170 -263 236 -282 67
-20 129 16 250 146 54 57 100 100 104 96 3 -4 26 -65 50 -137 24 -71 57 -150
74 -175 34 -50 165 -146 188 -137 8 3 37 39 64 80 50 74 74 139 108 282 9 39
18 75 20 82 3 8 24 0 61 -22 162 -98 340 -105 475 -19 l37 23 68 -45 c98 -64
165 -88 249 -88 84 -1 133 20 213 90 51 45 56 47 112 46 72 -1 92 -11 148 -73
90 -101 203 -117 340 -48 l72 35 132 -108 c112 -91 135 -107 157 -101 75 18
121 66 164 171 16 39 38 79 50 89 12 11 58 32 102 48 242 84 376 192 450 360
l25 55 -233 196 c-127 108 -233 203 -235 211 -4 14 -16 19 222 -76 71 -29 130
-50 132 -48 2 2 31 141 64 308 55 277 64 311 100 380 69 132 53 204 -76 334
l-74 74 35 68 c115 227 76 433 -120 641 -183 194 -401 335 -688 446 -323 125
-620 200 -987 252 -162 22 -716 28 -899 9z m635 -185 c416 -24 748 -87 1061
-200 304 -111 634 -321 765 -487 132 -168 143 -314 34 -426 -82 -85 -201 -134
-556 -232 -614 -168 -1218 -240 -1783 -215 -486 23 -1097 119 -1430 226 -127
42 -309 120 -377 164 -59 38 -117 100 -136 146 -35 83 -6 197 78 316 61 84
201 217 292 277 475 310 1265 476 2052 431z m-2309 -1562 c87 -64 228 -131
363 -171 117 -35 430 -100 975 -202 363 -68 500 -100 686 -161 207 -67 473
-186 623 -277 l38 -24 -38 -31 c-44 -37 -94 -62 -121 -62 -30 0 -120 33 -200
74 -40 20 -77 36 -83 36 -5 0 -38 -23 -72 -50 -113 -91 -194 -118 -256 -86
-40 21 -121 110 -182 201 -29 44 -54 81 -56 83 -1 2 -41 -26 -88 -62 -179
-137 -220 -140 -342 -24 l-40 38 -135 -42 c-116 -37 -146 -42 -226 -43 -84 0
-94 2 -118 25 -33 31 -56 74 -85 165 -12 39 -26 74 -31 79 -4 5 -63 -1 -135
-14 -215 -37 -258 -22 -324 113 -21 45 -45 104 -52 131 l-13 48 -50 -6 c-193
-25 -221 -17 -269 77 -53 102 -46 199 20 290 l35 49 57 -54 c31 -30 85 -75
119 -100z m528 1 c322 -81 654 -136 1020 -171 215 -20 874 -17 1095 5 449 45
916 134 1309 248 57 17 105 28 108 26 5 -6 -118 -107 -297 -245 -370 -283
-498 -444 -566 -711 -13 -52 -26 -96 -28 -98 -8 -8 -151 61 -251 122 -147 89
-477 250 -650 318 -351 137 -689 227 -1160 308 -275 47 -394 76 -684 168 -121
39 -245 77 -275 86 -53 16 -136 67 -136 84 0 4 71 -14 158 -41 86 -26 247 -71
357 -99z m3835 113 c61 -59 54 -89 -51 -214 -36 -43 -58 -78 -55 -87 40 -127
46 -206 19 -252 -10 -16 -38 -39 -63 -52 -41 -20 -60 -22 -195 -22 -82 0 -163
4 -178 8 -27 7 -35 1 -120 -87 -100 -103 -138 -126 -215 -126 -53 0 -152 26
-152 39 0 8 139 137 390 363 192 172 546 467 562 467 9 1 35 -16 58 -37z"/>
</g>
</svg>
